<?xml version="1.0" encoding="utf-8"?>
<svg xmlns="http://www.w3.org/2000/svg" xmlns:xlink="http://www.w3.org/1999/xlink">
<symbol viewBox="0 0 29 42" id="1" xmlns="http://www.w3.org/2000/svg"><path fill="none" stroke="#FF5274" stroke-linecap="round" stroke-linejoin="round" stroke-width="2" d="M13.807 29l5.34 1.256s.948.335.948-.83c0 0-.01.483 0-.103.019-1.401.263-2.035 2.798-4.778.006-.006.01.007.016 0 2.273-1.909 4.818-4.931 4.818-10.181C27.727 6.25 21.1 1 14.364 1 7.523 1 1 6.41 1 14.364c0 5.09 2.545 8.272 4.819 10.181.005.007.01-.006.015 0 2.535 2.743 2.778 3.377 2.799 4.778.008.586 0 .676 0 .676 0 .69-.15 1.305.64 1.546l10.301 2.267M9.273 34.964l10.182 2.309m-9.546 1.326l8.273 1.856"/></symbol>
<symbol viewBox="0 0 39 42" id="2" xmlns="http://www.w3.org/2000/svg"><path fill="none" stroke="#FF5274" stroke-linecap="round" stroke-linejoin="round" stroke-width="2" d="M27.422 20.633C27.422 9.791 23.736 1 19.19 1c-4.547 0-8.233 8.79-8.233 19.633s3.686 19.634 8.233 19.634c4.547 0 8.233-8.791 8.233-19.634zm-12.35-7.13C5.682 18.925-.818 26.512 1.456 30.45c2.273 3.938 12.459 2.735 21.85-2.687 9.39-5.42 15.89-13.008 13.616-16.946-2.273-3.938-12.459-2.735-21.85 2.686zm0 14.26c9.391 5.422 19.577 6.625 21.85 2.687 2.274-3.938-4.225-11.525-13.616-16.947-9.391-5.421-19.577-6.624-21.85-2.686-2.274 3.938 4.225 11.525 13.616 16.946zm6.65-7.13a2.533 2.533 0 11-5.067 0 2.533 2.533 0 015.067 0z"/></symbol>
<symbol viewBox="0 0 42 42" id="3" xmlns="http://www.w3.org/2000/svg"><g fill="none" fill-rule="evenodd"><path stroke="#FF5274" stroke-linecap="round" stroke-linejoin="round" stroke-width="2" d="M31.605 23.205l8.571 8.61c.53.535.43 1.495-.1 2.027l-6.39 6.497c-.53.535-1.782.779-2.556 0 0 0-3.291-3.539-8.088-8.359m-12.938-13a554.408 554.408 0 00-8.37-8.254c-.53-.533-.878-1.685 0-2.568l6.39-6.422c.53-.533 1.571-.989 2.556 0 0 0 3.19 3.648 8.157 8.64m10.615 27.721l4.873-4.897m-8.654.99l2.264-2.274M3.863 12.438l4.9-4.923m-1.037 8.749l2.315-2.327"/><path d="M5.134 28.404l21.983-22.09 8.601 8.644-21.842 22.095L1.095 40.88z"/><path stroke="#FF5274" stroke-linecap="round" stroke-linejoin="round" stroke-width="2" d="M5.134 28.404l21.983-22.09 8.601 8.644-21.842 22.095L1.095 40.88z"/><path stroke="#FF5274" stroke-linecap="round" stroke-linejoin="round" stroke-width="2" d="M35.682 14.958l4.78-4.802a1.365 1.365 0 000-1.921l-6.69-6.723a1.348 1.348 0 00-1.912 0l-4.78 4.803"/><path stroke="#FF5274" stroke-linejoin="round" stroke-width="2" d="M33.351 12.615L12.598 33.2l1.103 3.845m-8.603-8.641l3.71.846L29.33 8.574"/><path stroke="#FF5274" stroke-linecap="round" stroke-linejoin="round" stroke-width="2" d="M8.763 29.348V33.2h3.835"/></g></symbol>
<symbol viewBox="0 0 31 38" id="b1" xmlns="http://www.w3.org/2000/svg"><path fill="none" stroke="#FF5274" stroke-linecap="round" stroke-linejoin="round" stroke-width="2" d="M9.752 1.803h10-10zm19.004 30.473l-6.893-11.028v-.001l-.1-.14c-.527-.754-3.122-5.2-3.122-9.026V4.026h-7.778v8.055c0 4.067-2.83 9.149-2.84 9.166L1.86 32.276c-1.77 2.49-.719 3.972 2.337 3.972h22.222c3.055 0 4.107-1.482 2.337-3.972zm-20.8-10.28c1.046.596 2.004 1.244 4.084 1.244 3.856 0 3.856-2.222 7.711-2.222.881 0 1.562.116 2.133.296l-13.928.682z"/></symbol>
<symbol viewBox="0 0 36 37" id="b2" xmlns="http://www.w3.org/2000/svg"><path fill="none" stroke="#FF5274" stroke-linecap="round" stroke-linejoin="round" stroke-width="2" d="M20.477 35.146l-3.282-3.282 3.282-3.28M10.633 8.895l3.35-4.982c2.068-3.566 5.45-3.566 7.519 0l6.63 11.544m1.095-5.469l-1.094 5.47-5.469-1.095M10.633 31.885H5.71c-4.122-.009-5.91-3.51-3.855-7.083l6.59-11.531m-5.47 1.093l5.47-1.093 2.187 5.468m20.781 1.094l2.215 4.996c2.055 3.575.267 7.028-3.855 7.035l-12.579.021"/></symbol>
<symbol viewBox="0 0 41 37" id="b3" xmlns="http://www.w3.org/2000/svg"><path fill="none" stroke="#FF5274" stroke-linecap="round" stroke-linejoin="round" stroke-width="2" d="M1 35.444c1.529-5.703 8.896-6.16 10.496-6.855 2.833-1.229 3.867-3.142 4.183-4.792-1.766-1.525-3.198-3.788-4.078-6.253-1.238-1.346-1.973-2.82-1.973-4.036 0-.862.376-1.438 1.033-1.83.253-5.926 4.501-10.647 9.73-10.675.016 0 .031-.003.048-.003.041 0 .081.007.122.007 5.261.074 9.515 4.896 9.666 10.902.45.38.707.891.707 1.599 0 1.033-.535 2.253-1.453 3.423-.893 2.828-2.518 5.452-4.558 7.093.316 1.65 1.35 3.563 4.184 4.793 1.6.694 8.966.924 10.495 6.627"/></symbol></svg>